  0
SECTION
  2
HEADER
  9
$ACADVER
  1
AC1004
  9
$INSBASE
 10
0.0
 20
0.0
  9
$EXTMIN
 10
1.028393700787402
 20
-9.475673228346457
  9
$EXTMAX
 10
11.24873228346457
 20
9.833452755905512
  9
$LIMMIN
 10
0.0
 20
0.0
  9
$LIMMAX
 10
12.0
 20
9.0
  9
$ORTHOMODE
 70
     0
  9
$REGENMODE
 70
     1
  9
$FILLMODE
 70
     1
  9
$QTEXTMODE
 70
     0
  9
$DRAGMODE
 70
     2
  9
$LTSCALE
 40
1.0
  9
$OSMODE
 70
    37
  9
$ATTMODE
 70
     1
  9
$TEXTSIZE
 40
0.2
  9
$TRACEWID
 40
0.05
  9
$TEXTSTYLE
  7
STANDARD
  9
$CLAYER
  8
0
  9
$CELTYPE
  6
BYLAYER
  9
$CECOLOR
 62
   256
  9
$DIMSCALE
 40
1.0
  9
$DIMASZ
 40
0.18
  9
$DIMEXO
 40
0.0625
  9
$DIMDLI
 40
0.38
  9
$DIMRND
 40
0.0
  9
$DIMDLE
 40
0.0
  9
$DIMEXE
 40
0.18
  9
$DIMTP
 40
0.0
  9
$DIMTM
 40
0.0
  9
$DIMTXT
 40
0.18
  9
$DIMCEN
 40
0.09
  9
$DIMTSZ
 40
0.0
  9
$DIMTOL
 70
     0
  9
$DIMLIM
 70
     0
  9
$DIMTIH
 70
     1
  9
$DIMTOH
 70
     1
  9
$DIMSE1
 70
     0
  9
$DIMSE2
 70
     0
  9
$DIMTAD
 70
     0
  9
$DIMZIN
 70
     0
  9
$DIMBLK
  1

  9
$DIMASO
 70
     1
  9
$DIMSHO
 70
     1
  9
$DIMPOST
  1

  9
$DIMAPOST
  1

  9
$DIMALT
 70
     0
  9
$DIMALTD
 70
     2
  9
$DIMALTF
 40
25.4
  9
$DIMLFAC
 40
1.0
  9
$DIMTOFL
 70
     0
  9
$DIMTVP
 40
0.0
  9
$DIMTIX
 70
     0
  9
$DIMSOXD
 70
     0
  9
$DIMSAH
 70
     0
  9
$DIMBLK1
  1

  9
$DIMBLK2
  1

  9
$LUNITS
 70
     2
  9
$LUPREC
 70
     4
  9
$SKETCHINC
 40
0.1
  9
$FILLETRAD
 40
0.5
  9
$AUNITS
 70
     0
  9
$AUPREC
 70
     0
  9
$MENU
  1
.
  9
$ELEVATION
 40
0.0
  9
$THICKNESS
 40
0.0
  9
$LIMCHECK
 70
     0
  9
$CHAMFERA
 40
0.5
  9
$CHAMFERB
 40
0.5
  9
$SKPOLY
 70
     0
  9
$TDCREATE
 40
2459147.518984016
  9
$TDUPDATE
 40
2459147.518984028
  9
$TDINDWG
 40
0.0000000116
  9
$TDUSRTIMER
 40
0.0000000116
  9
$USRTIMER
 70
     1
  9
$ANGBASE
 50
0.0
  9
$ANGDIR
 70
     0
  9
$PDMODE
 70
     0
  9
$PDSIZE
 40
0.0
  9
$PLINEWID
 40
0.0
  9
$COORDS
 70
     1
  9
$SPLFRAME
 70
     0
  9
$SPLINETYPE
 70
     6
  9
$SPLINESEGS
 70
     8
  9
$ATTDIA
 70
     0
  9
$ATTREQ
 70
     1
  9
$SURFTAB1
 70
     6
  9
$SURFTAB2
 70
     6
  9
$SURFTYPE
 70
     6
  9
$SURFU
 70
     6
  9
$SURFV
 70
     6
  9
$UCSNAME
  2

  9
$UCSORG
 10
0.0
 20
0.0
 30
0.0
  9
$UCSXDIR
 10
1.0
 20
0.0
 30
0.0
  9
$UCSYDIR
 10
0.0
 20
1.0
 30
0.0
  9
$USERI1
 70
     0
  9
$USERI2
 70
     0
  9
$USERI3
 70
     0
  9
$USERI4
 70
     0
  9
$USERI5
 70
     0
  9
$USERR1
 40
0.0
  9
$USERR2
 40
0.0
  9
$USERR3
 40
0.0
  9
$USERR4
 40
0.0
  9
$USERR5
 40
0.0
  9
$WORLDVIEW
 70
     1
  0
ENDSEC
  0
SECTION
  2
TABLES
  0
TABLE
  2
LTYPE
 70
     1
  0
LTYPE
  2
CONTINUOUS
 70
     0
  3
Solid line
 72
    65
 73
     0
 40
0.0
  0
ENDTAB
  0
TABLE
  2
LAYER
 70
     6
  0
LAYER
  2
0
 70
     0
 62
     7
  6
CONTINUOUS
  0
LAYER
  2
MASTER_GUIDES2
 70
     0
 62
     7
  6
CONTINUOUS
  0
LAYER
  2
MINS_INVERSE
 70
     0
 62
     7
  6
CONTINUOUS
  0
LAYER
  2
HOURS_REVERSED
 70
     0
 62
     7
  6
CONTINUOUS
  0
LAYER
  2
TOM_REVERSED
 70
     0
 62
     7
  6
CONTINUOUS
  0
LAYER
  2
TOH_REVERSED
 70
     0
 62
     7
  6
CONTINUOUS
  0
ENDTAB
  0
TABLE
  2
STYLE
 70
     1
  0
STYLE
  2
STANDARD
 70
     0
 40
0.0
 41
1.0
 50
0.0
 71
     0
 42
0.2
  3
txt
  4

  0
ENDTAB
  0
TABLE
  2
VIEW
 70
     0
  0
ENDTAB
  0
ENDSEC
  0
SECTION
  2
BLOCKS
  0
ENDSEC
  0
SECTION
  2
ENTITIES
  0
POLYLINE
  8
MINS_INVERSE
 62
     5
 66
     1
 70
     1
  0
VERTEX
  8
MINS_INVERSE
 62
     5
 10
1.03001968503937
 20
2.845535433070866
  0
VERTEX
  8
MINS_INVERSE
 62
     5
 10
1.248767716535433
 20
2.845535433070866
  0
VERTEX
  8
MINS_INVERSE
 62
     5
 10
1.248767716535433
 20
3.41498031496063
  0
VERTEX
  8
MINS_INVERSE
 62
     5
 10
1.03001968503937
 20
3.41498031496063
  0
VERTEX
  8
MINS_INVERSE
 62
     5
 10
1.03001968503937
 20
3.928866141732283
  0
VERTEX
  8
MINS_INVERSE
 62
     5
 10
2.196685039370079
 20
3.928866141732283
  0
VERTEX
  8
MINS_INVERSE
 62
     5
 10
2.196685039370079
 20
2.845535433070866
  0
VERTEX
  8
MINS_INVERSE
 62
     5
 10
2.415318897637795
 20
2.845535433070866
  0
VERTEX
  8
MINS_INVERSE
 62
     5
 10
2.415318897637795
 20
3.928968503937008
  0
VERTEX
  8
MINS_INVERSE
 62
     5
 10
1.028393700787402
 20
3.928968503937008
  0
VERTEX
  8
MINS_INVERSE
 62
     5
 10
1.028393700787402
 20
2.331645669291339
  0
VERTEX
  8
MINS_INVERSE
 62
     5
 10
1.03001968503937
 20
2.331645669291339
  0
VERTEX
  8
MINS_INVERSE
 62
     5
 10
1.03001968503937
 20
2.845535433070866
  0
SEQEND
  8
MINS_INVERSE
 62
     5
  0
POLYLINE
  8
MINS_INVERSE
 62
     5
 66
     1
 70
     1
  0
VERTEX
  8
MINS_INVERSE
 62
     5
 10
1.969255905511811
 20
9.237157480314961
  0
VERTEX
  8
MINS_INVERSE
 62
     5
 10
2.415318897637795
 20
9.237157480314961
  0
VERTEX
  8
MINS_INVERSE
 62
     5
 10
2.415318897637795
 20
9.382992125984252
  0
VERTEX
  8
MINS_INVERSE
 62
     5
 10
1.969255905511811
 20
9.382992125984252
  0
VERTEX
  8
MINS_INVERSE
 62
     5
 10
1.969255905511811
 20
9.237157480314961
  0
SEQEND
  8
MINS_INVERSE
 62
     5
  0
POLYLINE
  8
MINS_INVERSE
 62
     5
 66
     1
 70
     1
  0
VERTEX
  8
MINS_INVERSE
 62
     5
 10
1.795641732283465
 20
8.674657480314961
  0
VERTEX
  8
MINS_INVERSE
 62
     5
 10
1.795641732283465
 20
8.896877952755906
  0
VERTEX
  8
MINS_INVERSE
 62
     5
 10
1.649811023622047
 20
8.896877952755906
  0
VERTEX
  8
MINS_INVERSE
 62
     5
 10
1.649811023622047
 20
8.674657480314961
  0
VERTEX
  8
MINS_INVERSE
 62
     5
 10
1.795641732283465
 20
8.674657480314961
  0
SEQEND
  8
MINS_INVERSE
 62
     5
  0
POLYLINE
  8
MINS_INVERSE
 62
     5
 66
     1
 70
     1
  0
VERTEX
  8
MINS_INVERSE
 62
     5
 10
1.472728346456693
 20
7.414488188976378
  0
VERTEX
  8
MINS_INVERSE
 62
     5
 10
1.028393700787402
 20
7.414488188976378
  0
VERTEX
  8
MINS_INVERSE
 62
     5
 10
1.028393700787402
 20
7.268653543307087
  0
VERTEX
  8
MINS_INVERSE
 62
     5
 10
1.472728346456693
 20
7.268653543307087
  0
VERTEX
  8
MINS_INVERSE
 62
     5
 10
1.472728346456693
 20
7.414488188976378
  0
SEQEND
  8
MINS_INVERSE
 62
     5
  0
POLYLINE
  8
MINS_INVERSE
 62
     5
 66
     1
 70
     1
  0
VERTEX
  8
MINS_INVERSE
 62
     5
 10
1.472728346456693
 20
6.865874015748031
  0
VERTEX
  8
MINS_INVERSE
 62
     5
 10
1.028393700787402
 20
6.865874015748031
  0
VERTEX
  8
MINS_INVERSE
 62
     5
 10
1.028393700787402
 20
6.720043307086614
  0
VERTEX
  8
MINS_INVERSE
 62
     5
 10
1.472728346456693
 20
6.720043307086614
  0
VERTEX
  8
MINS_INVERSE
 62
     5
 10
1.472728346456693
 20
6.865874015748031
  0
SEQEND
  8
MINS_INVERSE
 62
     5
  0
POLYLINE
  8
MINS_INVERSE
 62
     5
 66
     1
 70
     1
  0
VERTEX
  8
MINS_INVERSE
 62
     5
 10
1.795641732283465
 20
5.459870078740157
  0
VERTEX
  8
MINS_INVERSE
 62
     5
 10
1.649811023622047
 20
5.459870078740157
  0
VERTEX
  8
MINS_INVERSE
 62
     5
 10
1.649811023622047
 20
5.237649606299213
  0
VERTEX
  8
MINS_INVERSE
 62
     5
 10
1.795641732283465
 20
5.237649606299213
  0
VERTEX
  8
MINS_INVERSE
 62
     5
 10
1.795641732283465
 20
5.459870078740157
  0
SEQEND
  8
MINS_INVERSE
 62
     5
  0
POLYLINE
  8
MINS_INVERSE
 62
     5
 66
     1
 70
     1
  0
VERTEX
  8
MINS_INVERSE
 62
     5
 10
1.476200787401575
 20
4.897370078740157
  0
VERTEX
  8
MINS_INVERSE
 62
     5
 10
1.028393700787402
 20
4.897370078740157
  0
VERTEX
  8
MINS_INVERSE
 62
     5
 10
1.028393700787402
 20
4.75153937007874
  0
VERTEX
  8
MINS_INVERSE
 62
     5
 10
1.476200787401575
 20
4.75153937007874
  0
VERTEX
  8
MINS_INVERSE
 62
     5
 10
1.476200787401575
 20
4.897370078740157
  0
SEQEND
  8
MINS_INVERSE
 62
     5
  0
POLYLINE
  8
MINS_INVERSE
 62
     5
 66
     1
 70
     1
  0
VERTEX
  8
MINS_INVERSE
 62
     5
 10
4.419582677165354
 20
6.864307086614173
  0
VERTEX
  8
MINS_INVERSE
 62
     5
 10
3.971775590551181
 20
6.864307086614173
  0
VERTEX
  8
MINS_INVERSE
 62
     5
 10
3.971775590551181
 20
6.718476377952756
  0
VERTEX
  8
MINS_INVERSE
 62
     5
 10
4.419582677165354
 20
6.718476377952756
  0
VERTEX
  8
MINS_INVERSE
 62
     5
 10
4.419582677165354
 20
6.864307086614173
  0
SEQEND
  8
MINS_INVERSE
 62
     5
  0
POLYLINE
  8
MINS_INVERSE
 62
     5
 66
     1
 70
     1
  0
VERTEX
  8
MINS_INVERSE
 62
     5
 10
1.194948818897638
 20
1.161748031496063
  0
VERTEX
  8
MINS_INVERSE
 62
     5
 10
1.028393700787402
 20
1.328303149606299
  0
VERTEX
  8
MINS_INVERSE
 62
     5
 10
1.028393700787402
 20
0.9951929133858267
  0
VERTEX
  8
MINS_INVERSE
 62
     5
 10
1.194948818897638
 20
1.161748031496063
  0
SEQEND
  8
MINS_INVERSE
 62
     5
  0
POLYLINE
  8
MINS_INVERSE
 62
     5
 66
     1
 70
     1
  0
VERTEX
  8
MINS_INVERSE
 62
     5
 10
2.250503937007874
 20
1.161748031496063
  0
VERTEX
  8
MINS_INVERSE
 62
     5
 10
2.415318897637795
 20
0.9969330708661417
  0
VERTEX
  8
MINS_INVERSE
 62
     5
 10
2.415318897637795
 20
1.326562992125984
  0
VERTEX
  8
MINS_INVERSE
 62
     5
 10
2.250503937007874
 20
1.161748031496063
  0
SEQEND
  8
MINS_INVERSE
 62
     5
  0
POLYLINE
  8
MINS_INVERSE
 62
     5
 66
     1
 70
     1
  0
VERTEX
  8
MINS_INVERSE
 62
     5
 10
1.795641732283465
 20
1.300637795275591
  0
VERTEX
  8
MINS_INVERSE
 62
     5
 10
1.795641732283465
 20
1.522858267716535
  0
VERTEX
  8
MINS_INVERSE
 62
     5
 10
1.649811023622047
 20
1.522858267716535
  0
VERTEX
  8
MINS_INVERSE
 62
     5
 10
1.649811023622047
 20
1.300637795275591
  0
VERTEX
  8
MINS_INVERSE
 62
     5
 10
1.795641732283465
 20
1.300637795275591
  0
SEQEND
  8
MINS_INVERSE
 62
     5
  0
POLYLINE
  8
MINS_INVERSE
 62
     5
 66
     1
 70
     1
  0
VERTEX
  8
MINS_INVERSE
 62
     5
 10
1.795641732283465
 20
1.022858267716535
  0
VERTEX
  8
MINS_INVERSE
 62
     5
 10
1.649811023622047
 20
1.022858267716535
  0
VERTEX
  8
MINS_INVERSE
 62
     5
 10
1.649811023622047
 20
0.8006377952755905
  0
VERTEX
  8
MINS_INVERSE
 62
     5
 10
1.795641732283465
 20
0.8006377952755905
  0
VERTEX
  8
MINS_INVERSE
 62
     5
 10
1.795641732283465
 20
1.022858267716535
  0
SEQEND
  8
MINS_INVERSE
 62
     5
  0
POLYLINE
  8
MINS_INVERSE
 62
     5
 66
     1
 70
     1
  0
VERTEX
  8
MINS_INVERSE
 62
     5
 10
2.415318897637795
 20
-0.4595275590551181
  0
VERTEX
  8
MINS_INVERSE
 62
     5
 10
1.969255905511811
 20
-0.4595275590551181
  0
VERTEX
  8
MINS_INVERSE
 62
     5
 10
1.969255905511811
 20
-0.6053622047244095
  0
VERTEX
  8
MINS_INVERSE
 62
     5
 10
2.415318897637795
 20
-0.6053622047244095
  0
VERTEX
  8
MINS_INVERSE
 62
     5
 10
2.415318897637795
 20
-0.4595275590551181
  0
SEQEND
  8
MINS_INVERSE
 62
     5
  0
POLYLINE
  8
MINS_INVERSE
 62
     5
 66
     1
 70
     1
  0
VERTEX
  8
MINS_INVERSE
 62
     5
 10
1.479673228346457
 20
-1.008141732283464
  0
VERTEX
  8
MINS_INVERSE
 62
     5
 10
1.028393700787402
 20
-1.008141732283464
  0
VERTEX
  8
MINS_INVERSE
 62
     5
 10
1.028393700787402
 20
-1.153972440944882
  0
VERTEX
  8
MINS_INVERSE
 62
     5
 10
1.479673228346457
 20
-1.153972440944882
  0
VERTEX
  8
MINS_INVERSE
 62
     5
 10
1.479673228346457
 20
-1.008141732283464
  0
SEQEND
  8
MINS_INVERSE
 62
     5
  0
POLYLINE
  8
MINS_INVERSE
 62
     5
 66
     1
 70
     1
  0
VERTEX
  8
MINS_INVERSE
 62
     5
 10
1.795641732283465
 20
-2.553031496062992
  0
VERTEX
  8
MINS_INVERSE
 62
     5
 10
1.649811023622047
 20
-2.553031496062992
  0
VERTEX
  8
MINS_INVERSE
 62
     5
 10
1.649811023622047
 20
-2.997476377952756
  0
VERTEX
  8
MINS_INVERSE
 62
     5
 10
1.795641732283465
 20
-2.997476377952756
  0
VERTEX
  8
MINS_INVERSE
 62
     5
 10
1.795641732283465
 20
-2.553031496062992
  0
SEQEND
  8
MINS_INVERSE
 62
     5
  0
POLYLINE
  8
MINS_INVERSE
 62
     5
 66
     1
 70
     1
  0
VERTEX
  8
MINS_INVERSE
 62
     5
 10
1.476200787401575
 20
-4.455566929133858
  0
VERTEX
  8
MINS_INVERSE
 62
     5
 10
1.028393700787402
 20
-4.455566929133858
  0
VERTEX
  8
MINS_INVERSE
 62
     5
 10
1.028393700787402
 20
-5.538629921259843
  0
VERTEX
  8
MINS_INVERSE
 62
     5
 10
1.476200787401575
 20
-4.455566929133858
  0
SEQEND
  8
MINS_INVERSE
 62
     5
  0
POLYLINE
  8
MINS_INVERSE
 62
     5
 66
     1
 70
     1
  0
VERTEX
  8
MINS_INVERSE
 62
     5
 10
2.415318897637795
 20
-5.913066929133858
  0
VERTEX
  8
MINS_INVERSE
 62
     5
 10
1.028393700787402
 20
-5.913066929133858
  0
VERTEX
  8
MINS_INVERSE
 62
     5
 10
1.028393700787402
 20
-5.913653543307086
  0
VERTEX
  8
MINS_INVERSE
 62
     5
 10
1.649811023622047
 20
-5.913653543307086
  0
VERTEX
  8
MINS_INVERSE
 62
     5
 10
1.649811023622047
 20
-6.38240157480315
  0
VERTEX
  8
MINS_INVERSE
 62
     5
 10
1.795641732283465
 20
-6.38240157480315
  0
VERTEX
  8
MINS_INVERSE
 62
     5
 10
1.795641732283465
 20
-5.913653543307086
  0
VERTEX
  8
MINS_INVERSE
 62
     5
 10
2.415318897637795
 20
-5.913653543307086
  0
VERTEX
  8
MINS_INVERSE
 62
     5
 10
2.415318897637795
 20
-5.913066929133858
  0
SEQEND
  8
MINS_INVERSE
 62
     5
  0
POLYLINE
  8
MINS_INVERSE
 62
     5
 66
     1
 70
     1
  0
VERTEX
  8
MINS_INVERSE
 62
     5
 10
1.795641732283465
 20
-7.274763779527559
  0
VERTEX
  8
MINS_INVERSE
 62
     5
 10
1.028393700787402
 20
-7.274763779527559
  0
VERTEX
  8
MINS_INVERSE
 62
     5
 10
1.028393700787402
 20
-7.510874015748032
  0
VERTEX
  8
MINS_INVERSE
 62
     5
 10
1.795641732283465
 20
-7.510874015748032
  0
VERTEX
  8
MINS_INVERSE
 62
     5
 10
1.795641732283465
 20
-7.274763779527559
  0
SEQEND
  8
MINS_INVERSE
 62
     5
  0
POLYLINE
  8
MINS_INVERSE
 62
     5
 66
     1
 70
     1
  0
VERTEX
  8
MINS_INVERSE
 62
     5
 10
1.472728346456693
 20
-8.333543307086615
  0
VERTEX
  8
MINS_INVERSE
 62
     5
 10
1.028393700787402
 20
-8.333543307086615
  0
VERTEX
  8
MINS_INVERSE
 62
     5
 10
1.028393700787402
 20
-8.479377952755906
  0
VERTEX
  8
MINS_INVERSE
 62
     5
 10
1.472728346456693
 20
-8.479377952755906
  0
VERTEX
  8
MINS_INVERSE
 62
     5
 10
1.472728346456693
 20
-8.333543307086615
  0
SEQEND
  8
MINS_INVERSE
 62
     5
  0
POLYLINE
  8
MINS_INVERSE
 62
     5
 66
     1
 70
     1
  0
VERTEX
  8
MINS_INVERSE
 62
     5
 10
7.359704724409449
 20
7.41463779527559
  0
VERTEX
  8
MINS_INVERSE
 62
     5
 10
6.915370078740158
 20
7.41463779527559
  0
VERTEX
  8
MINS_INVERSE
 62
     5
 10
6.915370078740158
 20
7.268803149606299
  0
VERTEX
  8
MINS_INVERSE
 62
     5
 10
7.359704724409449
 20
7.268803149606299
  0
VERTEX
  8
MINS_INVERSE
 62
     5
 10
7.359704724409449
 20
7.41463779527559
  0
SEQEND
  8
MINS_INVERSE
 62
     5
  0
POLYLINE
  8
MINS_INVERSE
 62
     5
 66
     1
 70
     1
  0
VERTEX
  8
MINS_INVERSE
 62
     5
 10
2.415318897637795
 20
-8.68261811023622
  0
VERTEX
  8
MINS_INVERSE
 62
     5
 10
2.122031496062992
 20
-8.975905511811023
  0
VERTEX
  8
MINS_INVERSE
 62
     5
 10
2.415318897637795
 20
-8.975905511811023
  0
VERTEX
  8
MINS_INVERSE
 62
     5
 10
2.415318897637795
 20
-8.68261811023622
  0
SEQEND
  8
MINS_INVERSE
 62
     5
  0
POLYLINE
  8
HOURS_REVERSED
 62
     5
 66
     1
 70
     1
  0
VERTEX
  8
HOURS_REVERSED
 62
     5
 10
3.971901574803149
 20
8.688547244094488
  0
VERTEX
  8
HOURS_REVERSED
 62
     5
 10
4.423291338582677
 20
8.688547244094488
  0
VERTEX
  8
HOURS_REVERSED
 62
     5
 10
4.423291338582677
 20
8.834377952755906
  0
VERTEX
  8
HOURS_REVERSED
 62
     5
 10
3.971901574803149
 20
8.834377952755906
  0
VERTEX
  8
HOURS_REVERSED
 62
     5
 10
3.971901574803149
 20
9.833452755905512
  0
VERTEX
  8
HOURS_REVERSED
 62
     5
 10
3.971775590551181
 20
9.833452755905512
  0
VERTEX
  8
HOURS_REVERSED
 62
     5
 10
3.971775590551181
 20
8.237157480314961
  0
VERTEX
  8
HOURS_REVERSED
 62
     5
 10
3.971901574803149
 20
8.237157480314961
  0
VERTEX
  8
HOURS_REVERSED
 62
     5
 10
3.971901574803149
 20
8.688547244094488
  0
SEQEND
  8
HOURS_REVERSED
 62
     5
  0
POLYLINE
  8
HOURS_REVERSED
 62
     5
 66
     1
 70
     1
  0
VERTEX
  8
HOURS_REVERSED
 62
     5
 10
4.912874015748032
 20
9.237157480314961
  0
VERTEX
  8
HOURS_REVERSED
 62
     5
 10
5.360681102362205
 20
9.237157480314961
  0
VERTEX
  8
HOURS_REVERSED
 62
     5
 10
5.360681102362205
 20
9.382992125984252
  0
VERTEX
  8
HOURS_REVERSED
 62
     5
 10
4.912874015748032
 20
9.382992125984252
  0
VERTEX
  8
HOURS_REVERSED
 62
     5
 10
4.912874015748032
 20
9.237157480314961
  0
SEQEND
  8
HOURS_REVERSED
 62
     5
  0
POLYLINE
  8
HOURS_REVERSED
 62
     5
 66
     1
 70
     1
  0
VERTEX
  8
HOURS_REVERSED
 62
     5
 10
4.739259842519685
 20
7.428374015748031
  0
VERTEX
  8
HOURS_REVERSED
 62
     5
 10
4.593429133858268
 20
7.428374015748031
  0
VERTEX
  8
HOURS_REVERSED
 62
     5
 10
4.593429133858268
 20
7.206153543307087
  0
VERTEX
  8
HOURS_REVERSED
 62
     5
 10
4.739259842519685
 20
7.206153543307087
  0
VERTEX
  8
HOURS_REVERSED
 62
     5
 10
4.739259842519685
 20
7.428374015748031
  0
SEQEND
  8
HOURS_REVERSED
 62
     5
  0
POLYLINE
  8
HOURS_REVERSED
 62
     5
 66
     1
 70
     1
  0
VERTEX
  8
HOURS_REVERSED
 62
     5
 10
5.360681102362205
 20
5.445984251968504
  0
VERTEX
  8
HOURS_REVERSED
 62
     5
 10
4.912874015748032
 20
5.445984251968504
  0
VERTEX
  8
HOURS_REVERSED
 62
     5
 10
4.912874015748032
 20
5.300149606299213
  0
VERTEX
  8
HOURS_REVERSED
 62
     5
 10
5.360681102362205
 20
5.300149606299213
  0
VERTEX
  8
HOURS_REVERSED
 62
     5
 10
5.360681102362205
 20
5.445984251968504
  0
SEQEND
  8
HOURS_REVERSED
 62
     5
  0
POLYLINE
  8
HOURS_REVERSED
 62
     5
 66
     1
 70
     1
  0
VERTEX
  8
HOURS_REVERSED
 62
     5
 10
4.739259842519685
 20
4.737649606299213
  0
VERTEX
  8
HOURS_REVERSED
 62
     5
 10
4.739259842519685
 20
4.959870078740157
  0
VERTEX
  8
HOURS_REVERSED
 62
     5
 10
4.593429133858268
 20
4.959870078740157
  0
VERTEX
  8
HOURS_REVERSED
 62
     5
 10
4.593429133858268
 20
4.737649606299213
  0
VERTEX
  8
HOURS_REVERSED
 62
     5
 10
4.739259842519685
 20
4.737649606299213
  0
SEQEND
  8
HOURS_REVERSED
 62
     5
  0
POLYLINE
  8
HOURS_REVERSED
 62
     5
 66
     1
 70
     1
  0
VERTEX
  8
HOURS_REVERSED
 62
     5
 10
4.416346456692914
 20
3.47748031496063
  0
VERTEX
  8
HOURS_REVERSED
 62
     5
 10
3.971901574803149
 20
3.47748031496063
  0
VERTEX
  8
HOURS_REVERSED
 62
     5
 10
3.971901574803149
 20
3.928866141732283
  0
VERTEX
  8
HOURS_REVERSED
 62
     5
 10
5.360681102362205
 20
3.928866141732283
  0
VERTEX
  8
HOURS_REVERSED
 62
     5
 10
5.360681102362205
 20
3.928968503937008
  0
VERTEX
  8
HOURS_REVERSED
 62
     5
 10
3.971775590551181
 20
3.928968503937008
  0
VERTEX
  8
HOURS_REVERSED
 62
     5
 10
3.971775590551181
 20
2.331645669291339
  0
VERTEX
  8
HOURS_REVERSED
 62
     5
 10
3.971901574803149
 20
2.331645669291339
  0
VERTEX
  8
HOURS_REVERSED
 62
     5
 10
3.971901574803149
 20
2.783035433070866
  0
VERTEX
  8
HOURS_REVERSED
 62
     5
 10
4.416346456692914
 20
2.783035433070866
  0
VERTEX
  8
HOURS_REVERSED
 62
     5
 10
4.416346456692914
 20
2.928866141732283
  0
VERTEX
  8
HOURS_REVERSED
 62
     5
 10
3.971901574803149
 20
2.928866141732283
  0
VERTEX
  8
HOURS_REVERSED
 62
     5
 10
3.971901574803149
 20
3.331645669291339
  0
VERTEX
  8
HOURS_REVERSED
 62
     5
 10
4.416346456692914
 20
3.331645669291339
  0
VERTEX
  8
HOURS_REVERSED
 62
     5
 10
4.416346456692914
 20
3.47748031496063
  0
SEQEND
  8
HOURS_REVERSED
 62
     5
  0
POLYLINE
  8
HOURS_REVERSED
 62
     5
 66
     1
 70
     1
  0
VERTEX
  8
HOURS_REVERSED
 62
     5
 10
4.739259842519685
 20
1.383972440944882
  0
VERTEX
  8
HOURS_REVERSED
 62
     5
 10
4.593429133858268
 20
1.383972440944882
  0
VERTEX
  8
HOURS_REVERSED
 62
     5
 10
4.593429133858268
 20
0.9395275590551181
  0
VERTEX
  8
HOURS_REVERSED
 62
     5
 10
4.739259842519685
 20
0.9395275590551181
  0
VERTEX
  8
HOURS_REVERSED
 62
     5
 10
4.739259842519685
 20
1.383972440944882
  0
SEQEND
  8
HOURS_REVERSED
 62
     5
  0
POLYLINE
  8
HOURS_REVERSED
 62
     5
 66
     1
 70
     1
  0
VERTEX
  8
HOURS_REVERSED
 62
     5
 10
4.739259842519685
 20
-0.0085708661417323
  0
VERTEX
  8
HOURS_REVERSED
 62
     5
 10
4.593429133858268
 20
-0.0085708661417323
  0
VERTEX
  8
HOURS_REVERSED
 62
     5
 10
4.593429133858268
 20
-0.4768897637795276
  0
VERTEX
  8
HOURS_REVERSED
 62
     5
 10
4.739259842519685
 20
-0.4768897637795276
  0
VERTEX
  8
HOURS_REVERSED
 62
     5
 10
4.739259842519685
 20
-0.0085708661417323
  0
SEQEND
  8
HOURS_REVERSED
 62
     5
  0
POLYLINE
  8
HOURS_REVERSED
 62
     5
 66
     1
 70
     1
  0
VERTEX
  8
HOURS_REVERSED
 62
     5
 10
4.739259842519685
 20
-1.369251968503937
  0
VERTEX
  8
HOURS_REVERSED
 62
     5
 10
3.971901574803149
 20
-1.369251968503937
  0
VERTEX
  8
HOURS_REVERSED
 62
     5
 10
3.971901574803149
 20
-0.0085708661417323
  0
VERTEX
  8
HOURS_REVERSED
 62
     5
 10
3.971775590551181
 20
-0.0085708661417323
  0
VERTEX
  8
HOURS_REVERSED
 62
     5
 10
3.971775590551181
 20
-1.605362204724409
  0
VERTEX
  8
HOURS_REVERSED
 62
     5
 10
4.739259842519685
 20
-1.605362204724409
  0
VERTEX
  8
HOURS_REVERSED
 62
     5
 10
4.739259842519685
 20
-1.369251968503937
  0
SEQEND
  8
HOURS_REVERSED
 62
     5
  0
POLYLINE
  8
HOURS_REVERSED
 62
     5
 66
     1
 70
     1
  0
VERTEX
  8
HOURS_REVERSED
 62
     5
 10
4.416346456692914
 20
-2.428031496062992
  0
VERTEX
  8
HOURS_REVERSED
 62
     5
 10
3.971901574803149
 20
-2.428031496062992
  0
VERTEX
  8
HOURS_REVERSED
 62
     5
 10
3.971901574803149
 20
-1.976645669291339
  0
VERTEX
  8
HOURS_REVERSED
 62
     5
 10
5.360681102362205
 20
-1.976645669291339
  0
VERTEX
  8
HOURS_REVERSED
 62
     5
 10
5.360681102362205
 20
-1.976468503937008
  0
VERTEX
  8
HOURS_REVERSED
 62
     5
 10
3.971775590551181
 20
-1.976468503937008
  0
VERTEX
  8
HOURS_REVERSED
 62
     5
 10
3.971775590551181
 20
-3.573866141732283
  0
VERTEX
  8
HOURS_REVERSED
 62
     5
 10
3.971901574803149
 20
-3.573866141732283
  0
VERTEX
  8
HOURS_REVERSED
 62
     5
 10
3.971901574803149
 20
-2.573866141732283
  0
VERTEX
  8
HOURS_REVERSED
 62
     5
 10
4.416346456692914
 20
-2.573866141732283
  0
VERTEX
  8
HOURS_REVERSED
 62
     5
 10
4.416346456692914
 20
-2.428031496062992
  0
SEQEND
  8
HOURS_REVERSED
 62
     5
  0
POLYLINE
  8
HOURS_REVERSED
 62
     5
 66
     1
 70
     1
  0
VERTEX
  8
HOURS_REVERSED
 62
     5
 10
5.360681102362205
 20
-2.775362204724409
  0
VERTEX
  8
HOURS_REVERSED
 62
     5
 10
5.065649606299212
 20
-3.070393700787402
  0
VERTEX
  8
HOURS_REVERSED
 62
     5
 10
5.360681102362205
 20
-3.070393700787402
  0
VERTEX
  8
HOURS_REVERSED
 62
     5
 10
5.360681102362205
 20
-2.775362204724409
  0
SEQEND
  8
HOURS_REVERSED
 62
     5
  0
POLYLINE
  8
HOURS_REVERSED
 62
     5
 66
     1
 70
     1
  0
VERTEX
  8
HOURS_REVERSED
 62
     5
 10
4.138566929133859
 20
-4.743759842519685
  0
VERTEX
  8
HOURS_REVERSED
 62
     5
 10
3.971901574803149
 20
-4.577094488188976
  0
VERTEX
  8
HOURS_REVERSED
 62
     5
 10
3.971901574803149
 20
-3.945240157480315
  0
VERTEX
  8
HOURS_REVERSED
 62
     5
 10
3.971775590551181
 20
-3.945240157480315
  0
VERTEX
  8
HOURS_REVERSED
 62
     5
 10
3.971775590551181
 20
-5.542370078740158
  0
VERTEX
  8
HOURS_REVERSED
 62
     5
 10
3.971901574803149
 20
-5.542370078740158
  0
VERTEX
  8
HOURS_REVERSED
 62
     5
 10
3.971901574803149
 20
-4.910425196850394
  0
VERTEX
  8
HOURS_REVERSED
 62
     5
 10
4.138566929133859
 20
-4.743759842519685
  0
SEQEND
  8
HOURS_REVERSED
 62
     5
  0
POLYLINE
  8
HOURS_REVERSED
 62
     5
 66
     1
 70
     1
  0
VERTEX
  8
HOURS_REVERSED
 62
     5
 10
4.593429133858268
 20
-4.382649606299212
  0
VERTEX
  8
HOURS_REVERSED
 62
     5
 10
4.593429133858268
 20
-4.604870078740158
  0
VERTEX
  8
HOURS_REVERSED
 62
     5
 10
4.739259842519685
 20
-4.604870078740158
  0
VERTEX
  8
HOURS_REVERSED
 62
     5
 10
4.739259842519685
 20
-4.382649606299212
  0
VERTEX
  8
HOURS_REVERSED
 62
     5
 10
4.593429133858268
 20
-4.382649606299212
  0
SEQEND
  8
HOURS_REVERSED
 62
     5
  0
POLYLINE
  8
HOURS_REVERSED
 62
     5
 66
     1
 70
     1
  0
VERTEX
  8
HOURS_REVERSED
 62
     5
 10
4.739259842519685
 20
-4.882649606299212
  0
VERTEX
  8
HOURS_REVERSED
 62
     5
 10
4.593429133858268
 20
-4.882649606299212
  0
VERTEX
  8
HOURS_REVERSED
 62
     5
 10
4.593429133858268
 20
-5.104870078740158
  0
VERTEX
  8
HOURS_REVERSED
 62
     5
 10
4.739259842519685
 20
-5.104870078740158
  0
VERTEX
  8
HOURS_REVERSED
 62
     5
 10
4.739259842519685
 20
-4.882649606299212
  0
SEQEND
  8
HOURS_REVERSED
 62
     5
  0
POLYLINE
  8
HOURS_REVERSED
 62
     5
 66
     1
 70
     1
  0
VERTEX
  8
HOURS_REVERSED
 62
     5
 10
5.194122047244094
 20
-4.743759842519685
  0
VERTEX
  8
HOURS_REVERSED
 62
     5
 10
5.360681102362205
 20
-4.910318897637795
  0
VERTEX
  8
HOURS_REVERSED
 62
     5
 10
5.360681102362205
 20
-4.577200787401575
  0
VERTEX
  8
HOURS_REVERSED
 62
     5
 10
5.194122047244094
 20
-4.743759842519685
  0
SEQEND
  8
HOURS_REVERSED
 62
     5
  0
POLYLINE
  8
HOURS_REVERSED
 62
     5
 66
     1
 70
     1
  0
VERTEX
  8
HOURS_REVERSED
 62
     5
 10
5.360681102362205
 20
-5.913066929133858
  0
VERTEX
  8
HOURS_REVERSED
 62
     5
 10
3.971775590551181
 20
-5.913066929133858
  0
VERTEX
  8
HOURS_REVERSED
 62
     5
 10
3.971775590551181
 20
-7.510874015748032
  0
VERTEX
  8
HOURS_REVERSED
 62
     5
 10
3.97363779527559
 20
-7.510874015748032
  0
VERTEX
  8
HOURS_REVERSED
 62
     5
 10
3.97363779527559
 20
-6.996984251968504
  0
VERTEX
  8
HOURS_REVERSED
 62
     5
 10
4.192385826771654
 20
-6.996984251968504
  0
VERTEX
  8
HOURS_REVERSED
 62
     5
 10
4.192385826771654
 20
-6.42753937007874
  0
VERTEX
  8
HOURS_REVERSED
 62
     5
 10
3.97363779527559
 20
-6.42753937007874
  0
VERTEX
  8
HOURS_REVERSED
 62
     5
 10
3.97363779527559
 20
-5.913653543307086
  0
VERTEX
  8
HOURS_REVERSED
 62
     5
 10
5.140303149606299
 20
-5.913653543307086
  0
VERTEX
  8
HOURS_REVERSED
 62
     5
 10
5.140303149606299
 20
-6.996984251968504
  0
VERTEX
  8
HOURS_REVERSED
 62
     5
 10
5.360681102362205
 20
-6.996984251968504
  0
VERTEX
  8
HOURS_REVERSED
 62
     5
 10
5.360681102362205
 20
-5.913066929133858
  0
SEQEND
  8
HOURS_REVERSED
 62
     5
  0
POLYLINE
  8
HOURS_REVERSED
 62
     5
 66
     1
 70
     1
  0
VERTEX
  8
HOURS_REVERSED
 62
     5
 10
4.419818897637795
 20
-8.392574803149607
  0
VERTEX
  8
HOURS_REVERSED
 62
     5
 10
3.971901574803149
 20
-8.392574803149607
  0
VERTEX
  8
HOURS_REVERSED
 62
     5
 10
3.971901574803149
 20
-7.878685039370079
  0
VERTEX
  8
HOURS_REVERSED
 62
     5
 10
5.360681102362205
 20
-7.878685039370079
  0
VERTEX
  8
HOURS_REVERSED
 62
     5
 10
5.360681102362205
 20
-7.878346456692913
  0
VERTEX
  8
HOURS_REVERSED
 62
     5
 10
3.971775590551181
 20
-7.878346456692913
  0
VERTEX
  8
HOURS_REVERSED
 62
     5
 10
3.971775590551181
 20
-9.475673228346457
  0
VERTEX
  8
HOURS_REVERSED
 62
     5
 10
3.971996062992126
 20
-9.475673228346457
  0
VERTEX
  8
HOURS_REVERSED
 62
     5
 10
4.419818897637795
 20
-8.392574803149607
  0
SEQEND
  8
HOURS_REVERSED
 62
     5
  0
POLYLINE
  8
TOM_REVERSED
 62
     5
 66
     1
 70
     1
  0
VERTEX
  8
TOM_REVERSED
 62
     5
 10
7.537043307086615
 20
9.365629921259842
  0
VERTEX
  8
TOM_REVERSED
 62
     5
 10
7.682874015748031
 20
9.365629921259842
  0
VERTEX
  8
TOM_REVERSED
 62
     5
 10
7.682874015748031
 20
9.833452755905512
  0
VERTEX
  8
TOM_REVERSED
 62
     5
 10
7.537043307086615
 20
9.833452755905512
  0
VERTEX
  8
TOM_REVERSED
 62
     5
 10
7.537043307086615
 20
9.365629921259842
  0
SEQEND
  8
TOM_REVERSED
 62
     5
  0
POLYLINE
  8
TOM_REVERSED
 62
     5
 66
     1
 70
     1
  0
VERTEX
  8
TOM_REVERSED
 62
     5
 10
7.682874015748031
 20
8.473267716535434
  0
VERTEX
  8
TOM_REVERSED
 62
     5
 10
6.915515748031496
 20
8.473267716535434
  0
VERTEX
  8
TOM_REVERSED
 62
     5
 10
6.915515748031496
 20
9.833452755905512
  0
VERTEX
  8
TOM_REVERSED
 62
     5
 10
6.915370078740158
 20
9.833452755905512
  0
VERTEX
  8
TOM_REVERSED
 62
     5
 10
6.915370078740158
 20
8.237157480314961
  0
VERTEX
  8
TOM_REVERSED
 62
     5
 10
7.682874015748031
 20
8.237157480314961
  0
VERTEX
  8
TOM_REVERSED
 62
     5
 10
7.682874015748031
 20
8.473267716535434
  0
SEQEND
  8
TOM_REVERSED
 62
     5
  0
POLYLINE
  8
TOM_REVERSED
 62
     5
 66
     1
 70
     1
  0
VERTEX
  8
TOM_REVERSED
 62
     5
 10
8.304259842519684
 20
7.067118110236221
  0
VERTEX
  8
TOM_REVERSED
 62
     5
 10
8.009267716535433
 20
6.772125984251969
  0
VERTEX
  8
TOM_REVERSED
 62
     5
 10
8.304259842519684
 20
6.772125984251969
  0
VERTEX
  8
TOM_REVERSED
 62
     5
 10
8.304259842519684
 20
7.067118110236221
  0
SEQEND
  8
TOM_REVERSED
 62
     5
  0
POLYLINE
  8
TOM_REVERSED
 62
     5
 66
     1
 70
     1
  0
VERTEX
  8
TOM_REVERSED
 62
     5
 10
8.304259842519684
 20
5.445984251968504
  0
VERTEX
  8
TOM_REVERSED
 62
     5
 10
7.856492125984252
 20
5.445984251968504
  0
VERTEX
  8
TOM_REVERSED
 62
     5
 10
7.856492125984252
 20
5.300149606299213
  0
VERTEX
  8
TOM_REVERSED
 62
     5
 10
8.304259842519684
 20
5.300149606299213
  0
VERTEX
  8
TOM_REVERSED
 62
     5
 10
8.304259842519684
 20
5.445984251968504
  0
SEQEND
  8
TOM_REVERSED
 62
     5
  0
POLYLINE
  8
TOM_REVERSED
 62
     5
 66
     1
 70
     1
  0
VERTEX
  8
TOM_REVERSED
 62
     5
 10
7.366909448818897
 20
4.897370078740157
  0
VERTEX
  8
TOM_REVERSED
 62
     5
 10
6.91551968503937
 20
4.897370078740157
  0
VERTEX
  8
TOM_REVERSED
 62
     5
 10
6.91551968503937
 20
5.895952755905512
  0
VERTEX
  8
TOM_REVERSED
 62
     5
 10
6.915370078740158
 20
5.895952755905512
  0
VERTEX
  8
TOM_REVERSED
 62
     5
 10
6.915370078740158
 20
4.300149606299213
  0
VERTEX
  8
TOM_REVERSED
 62
     5
 10
6.91551968503937
 20
4.300149606299213
  0
VERTEX
  8
TOM_REVERSED
 62
     5
 10
6.91551968503937
 20
4.75153937007874
  0
VERTEX
  8
TOM_REVERSED
 62
     5
 10
7.366909448818897
 20
4.75153937007874
  0
VERTEX
  8
TOM_REVERSED
 62
     5
 10
7.366909448818897
 20
4.897370078740157
  0
SEQEND
  8
TOM_REVERSED
 62
     5
  0
POLYLINE
  8
TOM_REVERSED
 62
     5
 66
     1
 70
     1
  0
VERTEX
  8
TOM_REVERSED
 62
     5
 10
7.537043307086615
 20
3.35248031496063
  0
VERTEX
  8
TOM_REVERSED
 62
     5
 10
7.537043307086615
 20
2.908035433070866
  0
VERTEX
  8
TOM_REVERSED
 62
     5
 10
7.682874015748031
 20
2.908035433070866
  0
VERTEX
  8
TOM_REVERSED
 62
     5
 10
7.682874015748031
 20
3.35248031496063
  0
VERTEX
  8
TOM_REVERSED
 62
     5
 10
7.537043307086615
 20
3.35248031496063
  0
SEQEND
  8
TOM_REVERSED
 62
     5
  0
POLYLINE
  8
TOM_REVERSED
 62
     5
 66
     1
 70
     1
  0
VERTEX
  8
TOM_REVERSED
 62
     5
 10
7.35996062992126
 20
1.508976377952756
  0
VERTEX
  8
TOM_REVERSED
 62
     5
 10
6.915515748031496
 20
1.508976377952756
  0
VERTEX
  8
TOM_REVERSED
 62
     5
 10
6.915515748031496
 20
1.960200787401575
  0
VERTEX
  8
TOM_REVERSED
 62
     5
 10
6.915370078740158
 20
1.960200787401575
  0
VERTEX
  8
TOM_REVERSED
 62
     5
 10
6.915370078740158
 20
0.3631417322834646
  0
VERTEX
  8
TOM_REVERSED
 62
     5
 10
6.915515748031496
 20
0.3631417322834646
  0
VERTEX
  8
TOM_REVERSED
 62
     5
 10
6.915515748031496
 20
0.8145314960629921
  0
VERTEX
  8
TOM_REVERSED
 62
     5
 10
7.35996062992126
 20
0.8145314960629921
  0
VERTEX
  8
TOM_REVERSED
 62
     5
 10
7.35996062992126
 20
0.9603622047244095
  0
VERTEX
  8
TOM_REVERSED
 62
     5
 10
6.915515748031496
 20
0.9603622047244095
  0
VERTEX
  8
TOM_REVERSED
 62
     5
 10
6.915515748031496
 20
1.363141732283464
  0
VERTEX
  8
TOM_REVERSED
 62
     5
 10
7.35996062992126
 20
1.363141732283464
  0
VERTEX
  8
TOM_REVERSED
 62
     5
 10
7.35996062992126
 20
1.508976377952756
  0
SEQEND
  8
TOM_REVERSED
 62
     5
  0
POLYLINE
  8
TOM_REVERSED
 62
     5
 66
     1
 70
     1
  0
VERTEX
  8
TOM_REVERSED
 62
     5
 10
7.136
 20
-0.5220275590551181
  0
VERTEX
  8
TOM_REVERSED
 62
     5
 10
6.917251968503937
 20
-0.5220275590551181
  0
VERTEX
  8
TOM_REVERSED
 62
     5
 10
6.917251968503937
 20
-0.0085708661417323
  0
VERTEX
  8
TOM_REVERSED
 62
     5
 10
6.915370078740158
 20
-0.0085708661417323
  0
VERTEX
  8
TOM_REVERSED
 62
     5
 10
6.915370078740158
 20
-1.605362204724409
  0
VERTEX
  8
TOM_REVERSED
 62
     5
 10
6.917251968503937
 20
-1.605362204724409
  0
VERTEX
  8
TOM_REVERSED
 62
     5
 10
6.917251968503937
 20
-1.091472440944882
  0
VERTEX
  8
TOM_REVERSED
 62
     5
 10
7.136
 20
-1.091472440944882
  0
VERTEX
  8
TOM_REVERSED
 62
     5
 10
7.136
 20
-0.5220275590551181
  0
SEQEND
  8
TOM_REVERSED
 62
     5
  0
POLYLINE
  8
TOM_REVERSED
 62
     5
 66
     1
 70
     1
  0
VERTEX
  8
TOM_REVERSED
 62
     5
 10
8.083917322834646
 20
-0.0085708661417323
  0
VERTEX
  8
TOM_REVERSED
 62
     5
 10
8.083917322834646
 20
-1.091472440944882
  0
VERTEX
  8
TOM_REVERSED
 62
     5
 10
8.304259842519684
 20
-1.091472440944882
  0
VERTEX
  8
TOM_REVERSED
 62
     5
 10
8.304259842519684
 20
-0.0085708661417323
  0
VERTEX
  8
TOM_REVERSED
 62
     5
 10
8.083917322834646
 20
-0.0085708661417323
  0
SEQEND
  8
TOM_REVERSED
 62
     5
  0
POLYLINE
  8
TOH_REVERSED
 62
     5
 66
     1
 70
     1
  0
VERTEX
  8
TOH_REVERSED
 62
     5
 10
9.860728346456693
 20
9.237157480314961
  0
VERTEX
  8
TOH_REVERSED
 62
     5
 10
10.30358267716535
 20
9.237157480314961
  0
VERTEX
  8
TOH_REVERSED
 62
     5
 10
10.30358267716535
 20
9.382992125984252
  0
VERTEX
  8
TOH_REVERSED
 62
     5
 10
9.860728346456693
 20
9.382992125984252
  0
VERTEX
  8
TOH_REVERSED
 62
     5
 10
9.860728346456693
 20
9.237157480314961
  0
SEQEND
  8
TOH_REVERSED
 62
     5
  0
POLYLINE
  8
TOH_REVERSED
 62
     5
 66
     1
 70
     1
  0
VERTEX
  8
TOH_REVERSED
 62
     5
 10
11.24802362204724
 20
9.035767716535434
  0
VERTEX
  8
TOH_REVERSED
 62
     5
 10
10.95288582677165
 20
8.740629921259842
  0
VERTEX
  8
TOH_REVERSED
 62
     5
 10
11.24802362204724
 20
8.740629921259842
  0
VERTEX
  8
TOH_REVERSED
 62
     5
 10
11.24802362204724
 20
8.237157480314961
  0
VERTEX
  8
TOH_REVERSED
 62
     5
 10
11.24873228346457
 20
8.237157480314961
  0
VERTEX
  8
TOH_REVERSED
 62
     5
 10
11.24873228346457
 20
9.833452755905512
  0
VERTEX
  8
TOH_REVERSED
 62
     5
 10
11.24802362204724
 20
9.833452755905512
  0
VERTEX
  8
TOH_REVERSED
 62
     5
 10
11.24802362204724
 20
9.035767716535434
  0
SEQEND
  8
TOH_REVERSED
 62
     5
  0
POLYLINE
  8
TOH_REVERSED
 62
     5
 66
     1
 70
     1
  0
VERTEX
  8
TOH_REVERSED
 62
     5
 10
10.62649606299213
 20
6.845043307086614
  0
VERTEX
  8
TOH_REVERSED
 62
     5
 10
10.62649606299213
 20
7.289488188976378
  0
VERTEX
  8
TOH_REVERSED
 62
     5
 10
10.48066535433071
 20
7.289488188976378
  0
VERTEX
  8
TOH_REVERSED
 62
     5
 10
10.48066535433071
 20
6.845043307086614
  0
VERTEX
  8
TOH_REVERSED
 62
     5
 10
10.62649606299213
 20
6.845043307086614
  0
SEQEND
  8
TOH_REVERSED
 62
     5
  0
POLYLINE
  8
TOH_REVERSED
 62
     5
 66
     1
 70
     1
  0
VERTEX
  8
TOH_REVERSED
 62
     5
 10
10.07962204724409
 20
5.383484251968504
  0
VERTEX
  8
TOH_REVERSED
 62
     5
 10
9.860874015748031
 20
5.383484251968504
  0
VERTEX
  8
TOH_REVERSED
 62
     5
 10
9.860874015748031
 20
5.895952755905512
  0
VERTEX
  8
TOH_REVERSED
 62
     5
 10
9.860728346456693
 20
5.895952755905512
  0
VERTEX
  8
TOH_REVERSED
 62
     5
 10
9.860728346456693
 20
4.300149606299213
  0
VERTEX
  8
TOH_REVERSED
 62
     5
 10
9.860874015748031
 20
4.300149606299213
  0
VERTEX
  8
TOH_REVERSED
 62
     5
 10
9.860874015748031
 20
4.81403937007874
  0
VERTEX
  8
TOH_REVERSED
 62
     5
 10
10.07962204724409
 20
4.81403937007874
  0
VERTEX
  8
TOH_REVERSED
 62
     5
 10
10.07962204724409
 20
5.383484251968504
  0
SEQEND
  8
TOH_REVERSED
 62
     5
  0
POLYLINE
  8
TOH_REVERSED
 62
     5
 66
     1
 70
     1
  0
VERTEX
  8
TOH_REVERSED
 62
     5
 10
11.02753937007874
 20
5.895952755905512
  0
VERTEX
  8
TOH_REVERSED
 62
     5
 10
11.02753937007874
 20
4.81403937007874
  0
VERTEX
  8
TOH_REVERSED
 62
     5
 10
11.24873228346457
 20
4.81403937007874
  0
VERTEX
  8
TOH_REVERSED
 62
     5
 10
11.24873228346457
 20
5.895952755905512
  0
VERTEX
  8
TOH_REVERSED
 62
     5
 10
11.02753937007874
 20
5.895952755905512
  0
SEQEND
  8
TOH_REVERSED
 62
     5
  0
ENDSEC
  0
EOF
